<?xml version="1.0" encoding="UTF-8" standalone="no"?>
<svg
   xmlns:dc="http://purl.org/dc/elements/1.1/"
   xmlns:cc="http://creativecommons.org/ns#"
   xmlns:rdf="http://www.w3.org/1999/02/22-rdf-syntax-ns#"
   xmlns:svg="http://www.w3.org/2000/svg"
   xmlns="http://www.w3.org/2000/svg"
   xmlns:sodipodi="http://sodipodi.sourceforge.net/DTD/sodipodi-0.dtd"
   xmlns:inkscape="http://www.inkscape.org/namespaces/inkscape"
   version="1.1"
   viewBox="0 0 600 600"
   id="svg23"
   sodipodi:docname="steam.svg"
   width="600"
   height="600"
   inkscape:version="1.0.2 (e86c870879, 2021-01-15)">
  <metadata
     id="metadata27">
    <rdf:RDF>
      <cc:Work
         rdf:about="">
        <dc:format>image/svg+xml</dc:format>
        <dc:type
           rdf:resource="http://purl.org/dc/dcmitype/StillImage" />
        <dc:title></dc:title>
      </cc:Work>
    </rdf:RDF>
  </metadata>
  <sodipodi:namedview
     pagecolor="#ffffff"
     bordercolor="#666666"
     borderopacity="1"
     objecttolerance="10"
     gridtolerance="10"
     guidetolerance="10"
     inkscape:pageopacity="0"
     inkscape:pageshadow="2"
     inkscape:window-width="1920"
     inkscape:window-height="1056"
     id="namedview25"
     showgrid="false"
     fit-margin-top="0"
     fit-margin-left="0"
     fit-margin-right="0"
     fit-margin-bottom="0"
     inkscape:zoom="0.76716738"
     inkscape:cx="210.98384"
     inkscape:cy="307.98366"
     inkscape:window-x="0"
     inkscape:window-y="420"
     inkscape:window-maximized="1"
     inkscape:current-layer="svg23" />
  <defs
     id="defs17">
    <linearGradient
       id="a"
       x2="116.68872"
       x1="116.68872"
       y2="232.87497"
       gradientTransform="matrix(2.5753701,0,0,2.5764899,-0.3862356,0)"
       y1="0"
       gradientUnits="userSpaceOnUse">
      <stop
         stop-color="#111D2E"
         offset="0"
         id="stop2" />
      <stop
         stop-color="#051839"
         offset=".21248"
         id="stop4" />
      <stop
         stop-color="#0A1B48"
         offset=".40695"
         id="stop6" />
      <stop
         stop-color="#132E62"
         offset=".58110"
         id="stop8" />
      <stop
         stop-color="#144B7E"
         offset=".73760"
         id="stop10" />
      <stop
         stop-color="#136497"
         offset=".87279"
         id="stop12" />
      <stop
         stop-color="#1387B8"
         offset="1"
         id="stop14" />
    </linearGradient>
  </defs>
  <path
     fill="url(#a)"
     d="M 12.21692,386.29185 C 49.304123,509.92275 164.02889,600 299.8083,600 465.59658,600 600,465.6824 600,300 600,134.31502 465.59658,0 299.8083,0 140.717,0 10.542031,123.67983 0.26078702,280.06867 19.687184,312.66953 27.267734,332.83262 12.219754,386.29185 Z"
     id="path19"
     style="fill:url(#a);stroke-width:2.57594" />
  <path
     fill="#ffffff"
     d="m 284.34495,224.86352 c 0,0.50472 0,1.00944 0.0258,1.48326 l -73.45807,106.64034 c -11.89945,-0.54077 -23.84012,1.54507 -35.16237,6.20601 -4.99117,2.03434 -9.66798,4.53219 -14.05619,7.41631 L 0.39194374,280.24893 c 0.001263,0 -3.73242634,61.3648 11.82214226,107.09871 L 126.2457,434.3691 c 5.72555,25.57081 23.27839,48 49.17475,58.7897 42.36955,17.69099 91.22221,-2.4721 108.8472,-44.83262 4.58662,-11.07296 6.72532,-22.6867 6.41611,-34.27468 l 105.10575,-75.06438 c 0.85033,0.0258 1.72642,0.0515 2.57675,0.0515 62.89854,0 114.02131,-51.24464 114.02131,-114.17511 0,-62.93562 -51.12277,-114.13391 -114.02131,-114.13391 -62.87277,0 -114.02131,51.19829 -114.02131,114.13391 z m -17.62499,216.09785 c -13.64133,32.72962 -51.27738,48.25751 -83.99184,34.6352 -15.09204,-6.28327 -26.48644,-17.79399 -33.05973,-31.51932 l 37.11812,15.37339 c 24.12614,10.04292 51.80561,-1.39055 61.83434,-25.49356 10.05964,-24.12875 -1.3528,-51.83691 -25.46605,-61.87983 l -38.37043,-15.88841 c 14.80602,-5.61373 31.63737,-5.81974 47.3633,0.72103 15.85476,6.59228 28.15618,19.00429 34.67536,34.86695 6.51919,15.86266 6.49342,33.37339 -0.10307,49.18455 m 131.6463,-140.03433 c -41.87223,0 -75.96267,-34.12017 -75.96267,-76.06352 0,-41.90987 34.09044,-76.04034 75.96267,-76.04034 41.898,0 75.98844,34.13047 75.98844,76.04034 0,41.94335 -34.09044,76.06352 -75.98844,76.06352 m -56.92047,-76.1794 c 0,-31.55279 25.56139,-57.14421 57.04931,-57.14421 31.51369,0 57.07507,25.59142 57.07507,57.14421 0,31.55536 -25.56138,57.1236 -57.07507,57.1236 -31.48792,0 -57.04931,-25.56824 -57.04931,-57.1236 z"
     id="path21"
     style="stroke-width:2.57594" />
</svg>
